<svg width="108" height="22" viewBox="0 0 108 22" fill="none" xmlns="http://www.w3.org/2000/svg">
<path d="M3.608 0.699999V14.764H13.304V17.5H0.536V0.699999H3.608ZM18.7353 4.828H24.2073C27.0153 4.828 28.1913 5.956 28.1913 8.812V11.548H17.6553V13.156C17.6553 14.716 18.1593 15.196 19.7193 15.196H23.7513C24.9273 15.196 25.3833 14.74 25.3833 13.564V13.012H28.1913V14.092C28.1913 16.42 27.0873 17.5 24.7833 17.5H18.7353C15.9273 17.5 14.7513 16.372 14.7513 13.516V8.812C14.7513 5.956 15.9273 4.828 18.7353 4.828ZM17.6553 9.004V9.676H25.3833V9.004C25.3833 7.444 24.8793 6.964 23.3193 6.964H19.7193C18.1593 6.964 17.6553 7.444 17.6553 9.004ZM34.5266 4.828H39.9986C42.8066 4.828 43.9826 5.956 43.9826 8.812V17.5H41.6066L41.2706 15.796L40.8626 16.108C40.1186 16.708 39.4946 17.092 38.9426 17.26C38.3906 17.428 37.5506 17.5 36.4226 17.5H33.5186C31.5266 17.5 30.5426 16.516 30.5426 14.524V13.204C30.5426 11.212 31.5266 10.228 33.5186 10.228H41.0786V8.98C41.0786 7.444 40.5746 6.964 39.0146 6.964H35.5586C34.3826 6.964 33.9266 7.372 33.9266 8.596V9.052H31.1186V8.236C31.1186 5.908 32.2226 4.828 34.5266 4.828ZM39.9746 14.764L41.0786 13.948V11.956H34.8866C33.8066 11.956 33.4466 12.34 33.4466 13.396V14.068C33.4466 15.148 33.8066 15.508 34.8866 15.508H37.3346C38.4146 15.508 39.2786 15.268 39.9746 14.764ZM57.419 6.58L57.755 4.828H60.131V16.876C60.131 19.948 58.739 21.34 55.667 21.34H46.931V19.132H54.827C56.579 19.132 57.227 18.484 57.227 16.732V14.98L57.179 15.028C56.387 15.7 55.643 16.132 54.971 16.324C54.299 16.516 53.363 16.612 52.187 16.612H50.435C47.627 16.612 46.451 15.484 46.451 12.628V8.812C46.451 5.956 47.627 4.828 50.435 4.828H52.187C53.363 4.828 54.299 4.924 54.971 5.116C55.643 5.308 56.387 5.74 57.179 6.388L57.419 6.58ZM56.267 13.468L57.227 12.772V8.668L56.267 7.948C55.547 7.396 54.491 7.132 53.123 7.132H51.395C49.835 7.132 49.355 7.612 49.355 9.172V12.268C49.355 13.828 49.835 14.308 51.395 14.308H53.123C54.467 14.308 55.523 14.02 56.267 13.468ZM73.3196 4.828H76.2476V17.5H73.8476L73.5116 15.748L73.2956 15.916C72.4796 16.588 71.7596 17.02 71.1116 17.212C70.4636 17.404 69.5276 17.5 68.3036 17.5H66.7916C63.9836 17.5 62.8076 16.372 62.8076 13.516V4.828H65.7116V13.036C65.7116 14.596 66.1916 15.076 67.7516 15.076H69.2396C70.6076 15.076 71.6396 14.812 72.3596 14.26L73.3196 13.54V4.828ZM82.7909 4.828H88.2629C91.0709 4.828 92.2469 5.956 92.2469 8.812V11.548H81.7109V13.156C81.7109 14.716 82.2149 15.196 83.7749 15.196H87.8069C88.9829 15.196 89.4389 14.74 89.4389 13.564V13.012H92.2469V14.092C92.2469 16.42 91.1429 17.5 88.8389 17.5H82.7909C79.9829 17.5 78.8069 16.372 78.8069 13.516V8.812C78.8069 5.956 79.9829 4.828 82.7909 4.828ZM81.7109 9.004V9.676H89.4389V9.004C89.4389 7.444 88.9349 6.964 87.3749 6.964H83.7749C82.2149 6.964 81.7109 7.444 81.7109 9.004ZM94.5982 14.716V13.516H97.4062V14.356C97.4062 15.124 97.7182 15.412 98.4862 15.412H103.814C104.582 15.412 104.894 15.124 104.894 14.356V13.348C104.894 12.604 104.582 12.34 103.814 12.268L97.5982 11.644C95.7502 11.476 94.8382 10.54 94.8382 8.884V7.588C94.8382 5.788 95.8462 4.828 97.5982 4.828H104.702C106.454 4.828 107.462 5.812 107.462 7.612V8.692H104.654V7.972C104.654 7.204 104.342 6.916 103.574 6.916H98.8222C98.0542 6.916 97.7422 7.204 97.7422 7.972V8.404C97.7422 9.148 98.0542 9.412 98.8222 9.484L105.038 10.108C106.886 10.276 107.798 11.212 107.798 12.868V14.74C107.798 16.54 106.79 17.5 105.038 17.5H97.3582C95.6062 17.5 94.5982 16.516 94.5982 14.716Z" fill="#FFFFF6"/>
</svg>
